<svg id="Ebene_1" xmlns="http://www.w3.org/2000/svg" viewBox="0 0 920 340"><style>.st1{fill:none;stroke:#fff;stroke-width:4;stroke-linecap:round;stroke-linejoin:round;stroke-miterlimit:10}.st2{font-family:&apos;OpenSans-Extrabold&apos;}.st3{font-size:130px}.st5{fill:#fff}.st6{font-size:80px}.st7{fill:none;stroke:#fff;stroke-width:5;stroke-miterlimit:10}.st9{font-family:&apos;OpenSans-Light&apos;}.st10{font-size:16px}.st11{letter-spacing:31}.st12{fill:none;stroke:#fff;stroke-miterlimit:10}</style><text transform="rotate(-24.792 700.542 57.105)"><tspan x="0" y="0" class="st1 st2 st3">Eu</tspan><tspan x="158.4" y="0" class="st1 st2 st3" letter-spacing="-2">rop</tspan><tspan x="378.1" y="0" class="st1 st2 st3">a</tspan></text><text transform="rotate(-25.042 670.911 -1057.223)" class="st5 st2 st6">Zahlen</text><text transform="rotate(-25.042 803.355 -486.456)" class="st5 st2 st6">nach</text><path class="st7" d="M346.6 171.7l108-50.1 49.5 103L877.6 42.7M12.7 326.6l310.9-144.3"/><path fill="#f7c30b" d="M887.4 43.8l15.3-15.5-21.5 3.5-10-19.3-3.3 21.5-21.5 3.6 19.5 9.7-3.3 21.6L878 53.4l19.4 9.7z"/><text transform="translate(865.071 121.078)"><tspan x="0" y="0" class="st5 st9 st10">120</tspan><tspan x="0" y="47" class="st5 st9 st10">100</tspan><tspan x="0" y="94" class="st5 st9 st10">80</tspan><tspan x="0" y="141" class="st5 st9 st10">60</tspan></text><text transform="translate(379.592 326.57)"><tspan x="0" y="0" class="st5 st9 st10">1989</tspan><tspan x="36.5" y="0" class="st5 st9 st10 st11"> </tspan><tspan x="72" y="0" class="st5 st9 st10">1994</tspan><tspan x="108.5" y="0" class="st5 st9 st10 st11"> </tspan><tspan x="144" y="0" class="st5 st9 st10">1999</tspan><tspan x="180.5" y="0" class="st5 st9 st10 st11"> </tspan><tspan x="216" y="0" class="st5 st9 st10">2004</tspan><tspan x="252.5" y="0" class="st5 st9 st10 st11"> </tspan><tspan x="288" y="0" class="st5 st9 st10">2009</tspan><tspan x="324.5" y="0" class="st5 st9 st10 st11"> </tspan><tspan x="360" y="0" class="st5 st9 st10">2014</tspan><tspan x="396.5" y="0" class="st5 st9 st10 st11"> </tspan><tspan x="432" y="0" class="st5 st9 st10">2019</tspan></text><path class="st12" d="M845 115.5h14M845 162.5h14M845 209.5h14M845 257.5h14M829.5 305v-14M757.5 305v-14M686.5 305v-14M614.5 305v-14M542.5 305v-14M471.5 305v-14M399.5 305v-14"/></svg>