<svg id="Ebene_1" xmlns="http://www.w3.org/2000/svg" viewBox="0 0 920 340"><style>.st0{enable-background:new}.st1{fill:none;stroke:#fff;stroke-width:4;stroke-linecap:round;stroke-linejoin:round;stroke-miterlimit:10}.st2{fill:#fff}.st5{font-family:&apos;OpenSans-Light&apos;}.st6{font-size:16px}.st7{letter-spacing:30}</style><g class="st0"><path class="st1" d="M99.7 271.7l-50 23.1-38.9-84.2 50-23.1 8.4 18.3L42 218.3l6.1 13.3 25.2-11.7 8.4 18.3-25.2 11.7 7.3 15.9 27.3-12.6 8.6 18.5zM159.7 244l-6.6-6.8-1.3.6c-.5 3.9-2.1 7.4-4.7 10.5-2.6 3.1-6.2 5.8-10.7 7.9-7.2 3.3-13.7 3.8-19.7 1.5-5.9-2.3-10.6-7.3-14.2-14.9l-19.6-42.5 22.5-10.4 16.5 35.7c2 4.3 4.1 7.2 6.3 8.8 2.2 1.6 4.7 1.8 7.5.5 3.9-1.8 5.9-4.6 6.2-8.4.2-3.8-1.3-9.4-4.7-16.6L124 181.3l22.5-10.4 30.2 65.3-17 7.8z"/></g><g class="st0"><path class="st1" d="M200.9 144.4c2-.9 3.9-1.6 5.8-2.1l1.4-.4 7.8 22.2c-2.1.4-4.7 1.3-8 2.8-4.9 2.3-8 5-9.2 8.3-1.2 3.3-.8 7 1.1 11.3l14.8 32.1-22.4 10.4-30.2-65.3 16.8-7.7 8.3 8.8 1.1-.5c.3-4.3 1.6-8.3 4-12 2.4-3.7 5.3-6.4 8.7-7.9zM293 142.7c4.9 10.7 5.9 20.3 2.9 29-3 8.6-9.6 15.3-20 20.1-9.9 4.6-19.2 5.2-27.9 1.8-8.7-3.4-15.4-10.3-20.2-20.7-4.9-10.6-5.9-20.2-2.8-28.8 3-8.5 9.7-15.2 20.1-20 6.4-3 12.7-4.2 18.9-3.8 6.2.5 11.8 2.6 16.8 6.5 5 3.7 9.1 9.1 12.2 15.9zm-42.3 19.5c2.6 5.6 5.3 9.5 8.2 11.8 2.9 2.2 6 2.6 9.6.9 3.5-1.6 5.3-4.2 5.4-7.8.1-3.6-1.2-8.2-3.8-13.8-2.6-5.6-5.2-9.4-8-11.6-2.8-2.2-5.9-2.4-9.5-.8-3.5 1.6-5.3 4.2-5.5 7.7-.2 3.4 1 8 3.6 13.6zM359 153.4c-3.3 1.5-6.5 2.3-9.6 2.5-3.1.1-6.6-.7-10.5-2.3l-1 .5c2.8 4.3 4.5 6.9 5 8l12.1 26.2-22.5 10.4-43.4-93.7 18.3-8.5 7 6.8 1-.5c1.3-8.2 5.6-14.1 13-17.5 7.2-3.3 14.3-3 21.2 1.1 6.9 4.1 12.7 11.4 17.6 21.8 4.9 10.5 6.5 19.8 5.1 27.8-1.6 8.3-6 14-13.3 17.4zM328.4 107c-3.3 1.5-5.1 3.8-5.3 6.8-.2 3 .7 6.8 2.7 11.5l.8 1.8c2.6 5.6 5.2 9.3 7.9 11.1 2.7 1.8 5.6 2 8.8.5 2.9-1.3 4.4-3.5 4.6-6.6.2-3.1-1.1-7.5-3.7-13.2-2.6-5.6-5.1-9.3-7.5-11.2-2.6-1.9-5.3-2.1-8.3-.7z"/></g><g class="st0"><path class="st1" d="M434.2 117.2l-8.3-6.6-.5.2c-1.3 5.2-3.2 9.2-5.7 12-2.5 2.8-6.3 5.4-11.3 7.7-6.1 2.8-11.8 3.2-17.1 1.2-5.2-2.1-9.4-6.4-12.5-13.1-3.2-7-3.2-13.2.1-18.9 3.3-5.6 9.4-10.8 18.4-15.4l10.7-5.4-.4-.9c-2.5-5.4-6.4-6.8-11.7-4.4-4.8 2.2-10.1 6.6-15.9 13.2l-13.4-11.9c5.8-7.4 14.5-13.8 26.1-19.2 8.4-3.9 15.8-4.8 22.3-2.8s11.5 6.8 14.9 14.2l19.8 42.8-15.5 7.3zm-23.5-7c2.7-1.3 4.7-3.2 5.8-5.8 1.1-2.6 1.1-5.3-.2-8.1l-2.3-5.1-5.1 2.6c-7.3 3.7-9.7 8.1-7.3 13.3 1.8 4 4.8 5 9.1 3.1z"/></g><g class="st0"><path class="st2" d="M553 164.8l-40.3 18.8-4-8.6 7.5-42.3-21.9 10.2-5.3-11.3 39.2-18.3 4 8.6-7.5 42.3 23-10.7 5.3 11.3zM585.8 149.5l-5.1-4.1-.3.1c-.8 3.2-1.9 5.7-3.5 7.4-1.5 1.8-3.8 3.3-6.9 4.8-3.8 1.8-7.3 2-10.5.8s-5.8-3.9-7.7-8c-2-4.3-2-8.1 0-11.6s5.8-6.7 11.3-9.6l6.6-3.3-.3-.6c-1.5-3.3-3.9-4.2-7.2-2.7-2.9 1.4-6.2 4.1-9.8 8.2l-8.3-7.3c3.5-4.6 8.9-8.5 16-11.9 5.1-2.4 9.7-3 13.7-1.8s7.1 4.1 9.2 8.7l12.3 26.3-9.5 4.6zm-14.5-4.3c1.7-.8 2.9-2 3.6-3.6.7-1.6.6-3.3-.1-5l-1.5-3.1-3.1 1.6c-4.5 2.3-6 5-4.5 8.2 1.1 2.5 3 3.1 5.6 1.9zM630 128.8l-10.2-21.9c-2.5-5.4-5.4-7.3-8.5-5.8-2.3 1.1-3.5 2.8-3.7 5.2-.2 2.4.8 5.8 2.8 10.2l8.2 17.6-13.8 6.5-25.7-55.1 13.8-6.5 3.7 7.8c1.7 3.5 3.3 7.7 5.1 12.4l.6-.3c.4-2.7 1.2-4.9 2.7-6.6 1.4-1.7 3.3-3.1 5.7-4.2 4.5-2.1 8.6-2.4 12.3-1 3.7 1.4 6.6 4.5 8.8 9.1l12.2 26.1-14 6.5zM667.2 111.4l-13.8 6.5-25.7-55.1 13.8-6.5 25.7 55.1zM696.5 98.6c-6.7 3.1-12.7 3.8-18 1.9-5.4-1.8-9.6-6-12.6-12.6-3.2-6.8-3.9-12.8-2.2-18 1.7-5.2 5.8-9.3 12.1-12.3 6-2.8 11.4-3.4 16.2-1.8 4.8 1.6 8.5 5.4 11.3 11.3l2.9 6.2-24.7 11.6c1.1 2.2 2.8 3.6 4.9 4.1 2.1.6 4.5.2 7.2-1 2.4-1.1 4.6-2.4 6.4-3.8 1.8-1.4 3.7-3.2 5.5-5.5l4.6 9.9c-1.7 2.1-3.5 3.9-5.6 5.4-2.2 1.6-4.8 3.1-8 4.6zm-15.9-31.7c-1.6.8-2.8 1.9-3.4 3.4s-.5 3.4.3 5.7l11.9-5.6c-1-1.9-2.2-3.2-3.8-3.9-1.5-.5-3.2-.4-5 .4zM746.9 74.2l-10.2-21.9c-1.2-2.7-2.6-4.5-4-5.5s-2.9-1.1-4.6-.3c-2.3 1.1-3.6 2.8-3.8 5.2-.2 2.3.8 5.8 2.9 10.3l8.2 17.6-13.8 6.4-18.7-40.1 10.4-4.9 4 4.1.8-.4c.3-2.4 1.3-4.6 2.9-6.5 1.6-1.9 3.8-3.5 6.5-4.8 4.4-2.1 8.5-2.4 12.2-1 3.7 1.4 6.6 4.5 8.8 9.1l12.2 26.1-13.8 6.6z"/></g><g class="st0"><path class="st2" d="M311.5 280.3l-10.2-21.9c-1.2-2.7-2.6-4.5-4-5.5s-3-1.1-4.6-.3c-2.3 1.1-3.6 2.8-3.8 5.2-.2 2.3.8 5.8 2.9 10.3l8.2 17.6-13.8 6.5-18.7-40.2 10.4-4.9 4 4.1.8-.4c.3-2.4 1.3-4.6 2.9-6.5 1.6-1.9 3.8-3.5 6.5-4.8 4.4-2.1 8.5-2.4 12.2-1 3.7 1.4 6.6 4.5 8.8 9.1l12.2 26.1-13.8 6.6zM360.9 257.2l-5.1-4.1-.3.1c-.8 3.2-1.9 5.7-3.5 7.4-1.5 1.8-3.8 3.3-6.9 4.8-3.8 1.8-7.3 2-10.5.8s-5.8-3.9-7.7-8c-2-4.3-2-8.1 0-11.6s5.8-6.7 11.3-9.6l6.6-3.3-.3-.6c-1.5-3.3-3.9-4.2-7.2-2.7-2.9 1.4-6.2 4.1-9.8 8.2l-8.3-7.3c3.5-4.6 8.9-8.5 16-11.9 5.1-2.4 9.7-3 13.7-1.8s7.1 4.1 9.2 8.7l12.3 26.3-9.5 4.6zm-14.5-4.3c1.7-.8 2.9-2 3.6-3.6.7-1.6.6-3.3-.1-5l-1.5-3.1-3.1 1.6c-4.5 2.3-6 5-4.5 8.2 1.1 2.5 3 3.1 5.6 1.9zM398.5 240.5c-6.6 3.1-12.4 3.6-17.4 1.7-5-2-9.1-6.2-12.2-12.9-3.1-6.7-3.7-12.7-1.7-18 1.9-5.4 6.3-9.6 13-12.8 4.6-2.2 9.5-3.2 14.6-3.1l.7 12.1c-2 .1-3.8.2-5.5.4-1.6.2-3.2.7-4.7 1.4-2.2 1-3.6 2.7-4 5-.4 2.3.1 5.1 1.6 8.3 3 6.4 6.9 8.5 11.6 6.3 4.1-1.9 7.4-4.9 10-9l5.1 11c-2.4 4.1-6.1 7.2-11.1 9.6zM444.2 218.3L434 196.4c-2.5-5.4-5.4-7.3-8.5-5.8-2.3 1.1-3.5 2.8-3.7 5.2-.2 2.4.8 5.8 2.8 10.2l8.2 17.6L419 230l-25.7-55 13.8-6.5 3.7 7.8c1.7 3.5 3.3 7.7 5.1 12.4l.6-.3c.4-2.7 1.2-4.9 2.7-6.6 1.4-1.7 3.3-3.1 5.7-4.2 4.5-2.1 8.6-2.4 12.3-1 3.7 1.4 6.6 4.5 8.8 9.1l12.2 26.1-14 6.5z"/></g><path d="M346.6 171.7l108-50.1 49.5 103L877.6 42.7M12.7 326.6l310.9-144.3" fill="none" stroke="#fff" stroke-width="5" stroke-miterlimit="10"/><path d="M887.4 43.8l15.3-15.5-21.5 3.5-10-19.3-3.3 21.5-21.5 3.6 19.5 9.7-3.3 21.6L878 53.4l19.4 9.7-10-19.3z" fill="#f7c30b"/><text transform="translate(865.071 121.078)" class="st2 st5 st6">120</text><text transform="translate(865.071 168.078)" class="st2 st5 st6">100</text><text transform="translate(865.071 215.078)" class="st2 st5 st6">80</text><text transform="translate(865.071 262.078)" class="st2 st5 st6">60</text><text transform="translate(379.592 326.57)" class="st2 st5 st6">1989</text><text transform="translate(416.092 326.57)" class="st2 st5 st6 st7"></text><text transform="translate(451.592 326.57)" class="st2 st5 st6">1994</text><text transform="translate(488.092 326.57)" class="st2 st5 st6 st7"></text><text transform="translate(523.592 326.57)" class="st2 st5 st6">1999</text><text transform="translate(560.092 326.57)" class="st2 st5 st6 st7"></text><text transform="translate(595.592 326.57)" class="st2 st5 st6">2004</text><text transform="translate(632.092 326.57)" class="st2 st5 st6 st7"></text><text transform="translate(667.592 326.57)" class="st2 st5 st6">2009</text><text transform="translate(704.092 326.57)" class="st2 st5 st6 st7"></text><text transform="translate(739.592 326.57)" class="st2 st5 st6">2014</text><text transform="translate(776.092 326.57)" class="st2 st5 st6 st7"></text><text transform="translate(811.592 326.57)" class="st2 st5 st6">2019</text><path d="M845 115.5h14m-14 47h14m-14 47h14m-14 48h14M829.5 305v-14m-72 14v-14m-71 14v-14m-72 14v-14m-72 14v-14m-71 14v-14m-72 14v-14" fill="none" stroke="#fff" stroke-miterlimit="10"/></svg>