<svg xmlns="http://www.w3.org/2000/svg" viewBox="0 0 595.3 841.9"><path d="M12.6 26.5c-2.1 0-4-1.3-4.9-2.5-.5-.7-2.2-3.3-3.7-5.6-1.1-1.6-2.2-3.3-2.4-3.6v-.1c-.2-.4-.3-.8-.2-1.2.1-.4.4-.8.8-1.1.3-.2.7-.4 1.1-.4h.2c.6.1 1 .3 1.2.7l2.7 4V3c0-1 .9-1.9 1.9-1.9s1.9.9 1.9 1.9v9.8-3.6l.3-.2c.3-.2.6-.3 1-.3.7 0 1.4.5 1.7 1.1l.1.1v3-3.1l.3-.2c.4-.3.7-.4 1.1-.4.8 0 1.5.5 1.8 1.3v2.7-2.6l.3-.2c.3-.2.7-.4 1.1-.4 1 0 1.7.8 1.7 1.9v8.5c0 3.3-2.7 5.9-6 5.9h-2z" fill="#fff"/><path d="M9.3 1.9c.6 0 1.1.5 1.1 1.1v9.8c0 .4.3.8.8.8s.8-.3.8-.8V9.6c.2-.1.4-.2.6-.2.5 0 .8.3 1 .7V13c0 .4.3.8.8.8s.6-.4.6-.8v-2.7c.2-.2.4-.2.7-.2.5 0 .9.3 1.1.8v2.5c0 .4.3.8.8.8.4 0 .8-.3.8-.8v-2.3c.2-.2.4-.2.6-.2.7 0 1 .6 1 1.1v8.5c0 2.9-2.4 5.2-5.3 5.2h-2.1c-1.8 0-3.5-1.1-4.3-2.2-.9-1.3-6.1-9.3-6.2-9.3 0-.2-.1-.4 0-.7.1-.3.3-.5.5-.7.2-.2.5-.2.7-.2h.2c.3 0 .5.2.6.4l2.7 4c.1.2.4.3.6.3h.2c.3-.1.5-.4.5-.7V3c0-.6.5-1.1 1.2-1.1m0-1.5C7.8.4 6.6 1.5 6.6 3v11.1l-1.3-2c-.4-.6-1-1-1.7-1H3.3c-.6 0-1.1.2-1.6.5-.6.4-1 1-1.1 1.6-.1.6-.1 1.2.3 1.8l.1.1c.3.4 1.3 2 2.4 3.6 1.5 2.3 3.3 4.9 3.7 5.6.9 1.4 3.1 2.8 5.5 2.8h2.1c3.7 0 6.7-3 6.8-6.6V12c0-1.5-1.1-2.6-2.5-2.6-.4 0-.8.1-1.1.2-.5-.7-1.3-1.1-2.1-1.1-.4 0-.8.1-1.2.3-.5-.6-1.2-.9-2-.9-.2 0-.4 0-.6.1V3C11.9 1.5 10.7.4 9.3.4z"/></svg>